<svg width="208" height="29" viewBox="0 0 208 29" fill="none" xmlns="http://www.w3.org/2000/svg">
<path d="M23.72 29H19.82V15.96H4.38V29H0.48V0.339998H4.38V13.12H19.82V0.339998H23.72V29ZM34.5944 25.74H46.9944V29H30.7144V0.339998H34.5944V25.74Z" fill="#828282"/>
<path d="M71.0813 0.079998V4.5H62.3813V29H57.0013V4.5H48.2613V0.079998H71.0813ZM98.8903 29H93.4703V16.36H79.9103V29H74.4903V0.079998H79.9103V12.52H93.4703V0.079998H98.8903V29ZM122.965 0.079998V4.36H110.145V12.38H120.245V16.52H110.145V24.7H122.965V29H104.725V0.079998H122.965ZM142.135 17C142.362 17.4267 142.569 17.8733 142.755 18.34C142.955 18.7933 143.149 19.2533 143.335 19.72C143.522 19.24 143.715 18.7667 143.915 18.3C144.115 17.8333 144.329 17.3867 144.555 16.96L153.115 0.939998C153.222 0.739998 153.329 0.579998 153.435 0.459999C153.555 0.339998 153.682 0.253332 153.815 0.199999C153.962 0.146665 154.122 0.113331 154.295 0.099999C154.469 0.086665 154.675 0.079998 154.915 0.079998H158.975V29H154.235V10.32C154.235 9.97333 154.242 9.59333 154.255 9.18C154.282 8.76667 154.315 8.34667 154.355 7.92L145.615 24.32C145.415 24.6933 145.155 24.9867 144.835 25.2C144.515 25.4 144.142 25.5 143.715 25.5H142.975C142.549 25.5 142.175 25.4 141.855 25.2C141.535 24.9867 141.275 24.6933 141.075 24.32L132.215 7.86C132.269 8.3 132.302 8.73333 132.315 9.16C132.342 9.57333 132.355 9.96 132.355 10.32V29H127.615V0.079998H131.675C131.915 0.079998 132.122 0.086665 132.295 0.099999C132.469 0.113331 132.622 0.146665 132.755 0.199999C132.902 0.253332 133.035 0.339998 133.155 0.459999C133.275 0.579998 133.389 0.739998 133.495 0.939998L142.135 17ZM183.043 0.079998V4.36H170.223V12.38H180.323V16.52H170.223V24.7H183.043V29H164.803V0.079998H183.043ZM203.613 18.1H207.253V20.96C207.253 21.2267 207.167 21.46 206.993 21.66C206.82 21.8467 206.567 21.94 206.233 21.94H203.613V29H199.293V21.94H187.093C186.76 21.94 186.467 21.84 186.213 21.64C185.96 21.4267 185.8 21.1667 185.733 20.86L185.233 18.36L198.933 0.0599995H203.613V18.1ZM199.293 8.64C199.293 8.21333 199.307 7.75333 199.333 7.26C199.36 6.76667 199.407 6.25333 199.473 5.72L190.493 18.1H199.293V8.64Z" fill="#2A9FA2"/>
</svg>
